<svg xmlns="http://www.w3.org/2000/svg" viewBox="0 0 32 32" role="img" aria-label="bfn — Benjamin Nößler">
  <title>bfn — Benjamin Nößler</title>
  <rect width="32" height="32" rx="7" fill="#1d2024"/>
  <path d="M12.48 17.156Q12.48 18.388 12 19.404Q11.52 20.42 10.664 21.02Q9.808 21.62 8.64 21.62Q7.888 21.62 7.248 21.324Q6.608 21.028 6.08 20.484L6.08 21.46L3.568 21.46L3.568 9.972L6.304 9.972L6.304 13.652Q6.816 13.172 7.392 12.932Q7.968 12.692 8.64 12.692Q9.808 12.692 10.664 13.284Q11.52 13.876 12 14.892Q12.48 15.908 12.48 17.156ZM9.632 17.156Q9.632 16.116 9.12 15.636Q8.608 15.156 7.984 15.156Q7.568 15.156 7.192 15.364Q6.816 15.572 6.576 16.012Q6.336 16.452 6.336 17.14Q6.336 17.812 6.568 18.26Q6.8 18.708 7.184 18.932Q7.568 19.156 7.984 19.156Q8.608 19.156 9.12 18.66Q9.632 18.164 9.632 17.156ZM17.296 21.46L14.56 21.46L14.56 15.236L12.96 15.236L12.96 12.852L14.56 12.852L14.56 12.548Q14.56 11.22 15.28 10.5Q16 9.78 17.44 9.78Q17.904 9.78 18.296 9.86Q18.688 9.94 18.992 10.068L18.992 12.228Q18.832 12.148 18.592 12.108Q18.352 12.068 18.128 12.068Q17.776 12.068 17.536 12.188Q17.296 12.308 17.296 12.612L17.296 12.852L19.408 12.852L19.408 15.236L17.296 15.236ZM23.2 16.932L23.2 21.46L20.464 21.46L20.464 12.852L22.976 12.852L22.976 13.892Q23.488 13.332 24.104 13.012Q24.72 12.692 25.536 12.692Q26.816 12.692 27.624 13.524Q28.432 14.356 28.432 15.924L28.432 21.46L25.696 21.46L25.696 16.836Q25.696 16.02 25.4 15.588Q25.104 15.156 24.48 15.156Q24.144 15.156 23.848 15.332Q23.552 15.508 23.376 15.892Q23.2 16.276 23.2 16.932Z" fill="#ffffff"/>
</svg>
