<svg xmlns="http://www.w3.org/2000/svg" viewBox="0 0 240 240" role="img" aria-label="bfn — Benjamin Nößler">
  <title>bfn — Benjamin Nößler</title>
  <rect width="240" height="240" rx="52" fill="#1d2024"/>
  <path d="M93.6 128.92Q93.6 138.16 90 145.78Q86.4 153.4 79.98 157.9Q73.56 162.4 64.8 162.4Q59.16 162.4 54.36 160.18Q49.56 157.96 45.6 153.88L45.6 161.2L26.76 161.2L26.76 75.04L47.28 75.04L47.28 102.64Q51.12 99.04 55.44 97.24Q59.76 95.44 64.8 95.44Q73.56 95.44 79.98 99.88Q86.4 104.32 90 111.94Q93.6 119.56 93.6 128.92ZM72.24 128.92Q72.24 121.12 68.4 117.52Q64.56 113.92 59.88 113.92Q56.76 113.92 53.94 115.48Q51.12 117.04 49.32 120.34Q47.52 123.64 47.52 128.8Q47.52 133.84 49.26 137.2Q51 140.56 53.88 142.24Q56.76 143.92 59.88 143.92Q64.56 143.92 68.4 140.2Q72.24 136.48 72.24 128.92ZM129.72 161.2L109.2 161.2L109.2 114.52L97.2 114.52L97.2 96.64L109.2 96.64L109.2 94.36Q109.2 84.4 114.6 79Q120 73.6 130.8 73.6Q134.28 73.6 137.22 74.2Q140.16 74.8 142.44 75.76L142.44 91.96Q141.24 91.36 139.44 91.06Q137.64 90.76 135.96 90.76Q133.32 90.76 131.52 91.66Q129.72 92.56 129.72 94.84L129.72 96.64L145.56 96.64L145.56 114.52L129.72 114.52ZM174 127.24L174 161.2L153.48 161.2L153.48 96.64L172.32 96.64L172.32 104.44Q176.16 100.24 180.78 97.84Q185.4 95.44 191.52 95.44Q201.12 95.44 207.18 101.68Q213.24 107.92 213.24 119.68L213.24 161.2L192.72 161.2L192.72 126.52Q192.72 120.4 190.5 117.16Q188.28 113.92 183.6 113.92Q181.08 113.92 178.86 115.24Q176.64 116.56 175.32 119.44Q174 122.32 174 127.24Z" fill="#ffffff"/>
</svg>
